<?xml version="1.0" encoding="UTF-8"?>
<svg width="168px" height="27px" viewBox="0 0 168 27" version="1.1" xmlns="http://www.w3.org/2000/svg" xmlns:xlink="http://www.w3.org/1999/xlink">
    <title>ecoseller.io</title>
    <g id="Page-1" stroke="none" stroke-width="1" fill="none" fill-rule="evenodd">
        <g id="Main-layout" transform="translate(-25.000000, -27.000000)" fill-rule="nonzero">
            <g id="ecoseller.io" transform="translate(25.000000, 27.540000)">
                <path d="M9.59,10.22 C12.11,10.22 14.14,11.83 14.21,14.385 L5.005,14.385 C5.39,11.725 7.245,10.22 9.59,10.22 Z M18.795,19.81 L13.51,19.81 C12.88,21.105 11.725,22.155 9.625,22.155 C7.175,22.155 5.215,20.545 4.97,17.675 L19.145,17.675 C19.25,17.045 19.285,16.415 19.285,15.785 C19.285,10.01 15.33,6.195 9.73,6.195 C3.99,6.195 3.55271368e-15,10.08 3.55271368e-15,16.205 C3.55271368e-15,22.295 4.095,26.215 9.73,26.215 C14.525,26.215 17.745,23.38 18.795,19.81 Z" id="Shape" fill="#000000"></path>
                <path d="M21.588,16.205 C21.588,22.295 25.578,26.215 31.178,26.215 C36.008,26.215 39.263,23.485 40.313,19.355 L35.028,19.355 C34.433,21.105 33.173,22.015 31.143,22.015 C28.413,22.015 26.593,19.985 26.593,16.205 C26.593,12.425 28.413,10.36 31.143,10.36 C33.173,10.36 34.468,11.41 35.028,13.055 L40.313,13.055 C39.263,8.715 36.008,6.195 31.178,6.195 C25.578,6.195 21.588,10.115 21.588,16.205 Z" id="Path" fill="#000000"></path>
                <path d="M62.636,16.205 C62.636,10.08 58.261,6.195 52.661,6.195 C47.061,6.195 42.686,10.08 42.686,16.205 C42.686,22.295 46.921,26.215 52.521,26.215 C58.156,26.215 62.636,22.295 62.636,16.205 Z M47.656,16.205 C47.656,12.32 50.001,10.465 52.591,10.465 C55.181,10.465 57.596,12.32 57.596,16.205 C57.596,20.055 55.111,21.945 52.521,21.945 C49.896,21.945 47.656,20.055 47.656,16.205 Z" id="Shape" fill="#000000"></path>
                <path d="M81.284,20.37 C81.144,13.265 70.399,15.47 70.399,11.935 C70.399,10.815 71.344,10.08 73.164,10.08 C75.089,10.08 76.279,11.095 76.419,12.6 L81.109,12.6 C80.829,8.75 77.994,6.195 73.304,6.195 C68.509,6.195 65.639,8.785 65.639,12.005 C65.639,19.11 76.594,16.905 76.594,20.37 C76.594,21.49 75.544,22.365 73.619,22.365 C71.659,22.365 70.294,21.245 70.119,19.775 L65.184,19.775 C65.394,23.38 68.789,26.215 73.654,26.215 C78.379,26.215 81.284,23.695 81.284,20.37 Z" id="Path" fill="#000000"></path>
                <path d="M93.632,10.22 C96.152,10.22 98.182,11.83 98.252,14.385 L89.047,14.385 C89.432,11.725 91.287,10.22 93.632,10.22 Z M102.837,19.81 L97.552,19.81 C96.922,21.105 95.767,22.155 93.667,22.155 C91.217,22.155 89.257,20.545 89.012,17.675 L103.187,17.675 C103.292,17.045 103.327,16.415 103.327,15.785 C103.327,10.01 99.372,6.195 93.772,6.195 C88.032,6.195 84.042,10.08 84.042,16.205 C84.042,22.295 88.137,26.215 93.772,26.215 C98.567,26.215 101.787,23.38 102.837,19.81 Z" id="Shape" fill="#000000"></path>
                <polygon id="Path" fill="#000000" points="106.89 25.9 111.79 25.9 111.79 0 106.89 0"></polygon>
                <polygon id="Path" fill="#000000" points="116.613 25.9 121.513 25.9 121.513 0 116.613 0"></polygon>
                <path d="M134.666,10.22 C137.186,10.22 139.216,11.83 139.286,14.385 L130.081,14.385 C130.466,11.725 132.321,10.22 134.666,10.22 Z M143.871,19.81 L138.586,19.81 C137.956,21.105 136.801,22.155 134.701,22.155 C132.251,22.155 130.291,20.545 130.046,17.675 L144.221,17.675 C144.326,17.045 144.361,16.415 144.361,15.785 C144.361,10.01 140.406,6.195 134.806,6.195 C129.066,6.195 125.076,10.08 125.076,16.205 C125.076,22.295 129.171,26.215 134.806,26.215 C139.601,26.215 142.821,23.38 143.871,19.81 Z" id="Shape" fill="#000000"></path>
                <path d="M152.824,16.24 C152.824,12.495 154.574,11.375 157.479,11.375 L158.774,11.375 L158.774,6.23 C156.079,6.23 154.049,7.525 152.824,9.52 L152.824,6.51 L147.924,6.51 L147.924,25.9 L152.824,25.9 L152.824,16.24 Z" id="Path" fill="#000000"></path>
                <path d="M167.202,23.275 C167.202,21.665 165.942,20.405 164.227,20.405 C162.442,20.405 161.182,21.665 161.182,23.275 C161.182,24.885 162.442,26.145 164.227,26.145 C165.942,26.145 167.202,24.885 167.202,23.275 Z" id="Path" fill="#8E44AD"></path>
            </g>
        </g>
    </g>
</svg>