<?xml version="1.0" standalone="no"?>
<!DOCTYPE svg PUBLIC "-//W3C//DTD SVG 20010904//EN"
 "http://www.w3.org/TR/2001/REC-SVG-20010904/DTD/svg10.dtd">
<svg version="1.0" xmlns="http://www.w3.org/2000/svg"
 width="1172.000000pt" height="1172.000000pt" viewBox="0 0 1172.000000 1172.000000"
 preserveAspectRatio="xMidYMid meet">
<metadata>
Created by potrace 1.14, written by Peter Selinger 2001-2017
</metadata>
<g transform="translate(0.000000,1172.000000) scale(0.100000,-0.100000)"
fill="#000000" stroke="none">
<path d="M6531 8524 c-130 -27 -275 -122 -345 -227 -148 -219 -119 -516 67
-698 119 -118 265 -172 447 -164 279 11 489 185 547 455 6 28 5 155 -1 190
-22 116 -73 210 -163 298 -41 39 -80 72 -88 72 -7 0 -15 4 -17 8 -3 9 -98 51
-132 59 -110 26 -209 28 -315 7z"/>
<path d="M1767 7043 c-1 -1 -40 -4 -86 -8 -46 -4 -93 -9 -105 -11 -11 -2 -32
-6 -46 -9 -14 -2 -38 -7 -55 -9 -269 -48 -590 -193 -792 -358 -67 -55 -233
-229 -284 -298 -73 -100 -73 -99 -162 -262 -44 -80 -136 -336 -151 -418 -2
-14 -9 -47 -15 -73 -6 -27 -14 -72 -17 -100 -3 -29 -8 -55 -10 -58 -9 -14 -18
-184 -18 -324 0 -231 12 -332 69 -595 25 -113 139 -384 205 -485 11 -16 27
-43 36 -60 9 -16 22 -35 28 -41 6 -7 22 -29 36 -49 53 -76 181 -212 277 -292
103 -87 293 -202 438 -263 53 -23 216 -78 250 -84 11 -2 27 -7 35 -10 22 -8
185 -36 260 -44 136 -15 483 -7 580 13 14 3 50 9 80 15 31 6 89 20 130 31 41
12 80 22 85 23 29 5 214 82 237 97 14 11 30 19 35 19 6 0 48 23 94 51 331 200
578 498 713 861 20 53 36 101 36 105 0 5 -229 9 -509 9 l-509 0 -27 -51 c-29
-54 -95 -144 -129 -175 -57 -53 -102 -90 -125 -102 -14 -7 -28 -15 -31 -19
-16 -17 -161 -72 -225 -84 -100 -19 -266 -25 -350 -12 -367 55 -623 283 -724
642 -6 22 -13 51 -15 65 -3 14 -9 45 -13 70 -5 25 -9 52 -8 60 0 13 147 15
1250 17 688 1 1303 2 1367 2 102 1 117 3 122 19 26 86 27 542 2 668 -2 12 -7
37 -10 55 -34 214 -98 396 -219 622 -17 30 -82 131 -100 153 -147 184 -249
281 -417 396 -93 63 -311 172 -390 194 -8 2 -51 15 -95 28 -44 13 -97 27 -116
30 -20 3 -42 8 -50 10 -8 3 -30 7 -49 10 -19 3 -44 8 -56 10 -65 13 -447 30
-457 19z m277 -787 c33 -4 64 -9 68 -12 4 -3 32 -11 62 -19 225 -59 428 -231
524 -446 26 -57 64 -195 61 -216 -1 -5 0 -10 1 -13 5 -13 6 -80 1 -81 -3 -1
-403 -2 -888 -3 l-882 -1 5 35 c37 242 179 485 359 609 86 60 231 124 305 137
14 2 43 6 65 10 22 3 41 7 43 9 5 5 217 -2 276 -9z"/>
<path d="M9627 7044 c-1 -1 -36 -5 -77 -8 -66 -6 -105 -11 -210 -30 -89 -15
-258 -63 -325 -91 -33 -14 -67 -28 -75 -30 -36 -9 -277 -141 -325 -177 -152
-116 -281 -235 -358 -329 -46 -57 -147 -207 -147 -218 0 -6 -4 -11 -8 -11 -7
0 -103 -193 -132 -265 -32 -79 -95 -308 -105 -382 -5 -43 -14 -109 -21 -155
-15 -94 -7 -464 11 -553 2 -11 7 -40 10 -65 23 -170 110 -440 188 -579 10 -19
30 -56 44 -82 13 -26 31 -53 39 -60 8 -6 14 -16 14 -21 0 -8 29 -49 82 -119
66 -86 177 -200 258 -266 19 -15 44 -36 54 -45 11 -10 28 -20 38 -24 10 -3 18
-9 18 -13 0 -4 19 -18 43 -31 23 -13 44 -27 47 -31 9 -12 223 -117 296 -145
140 -53 302 -95 419 -110 28 -3 54 -9 59 -11 16 -10 411 -13 488 -3 218 26
312 46 484 105 196 67 397 175 553 297 96 76 247 231 319 328 34 47 66 90 70
95 13 16 84 145 113 205 57 116 125 311 145 415 2 11 7 34 11 50 3 17 8 39 9
50 1 11 5 38 8 60 28 200 26 481 -3 666 -10 58 -34 176 -46 222 -3 9 -7 25 -9
35 -2 9 -12 40 -21 67 -110 330 -309 626 -554 825 -24 19 -48 40 -55 46 -67
63 -378 235 -439 242 -4 1 -20 8 -35 16 -74 41 -338 102 -523 122 -65 6 -346
13 -352 8z m293 -837 c13 -3 86 -20 100 -22 16 -3 128 -49 173 -71 105 -53
217 -149 310 -264 55 -70 150 -284 173 -390 10 -47 26 -145 30 -185 6 -59 6
-306 -1 -335 -3 -14 -7 -38 -9 -55 -10 -71 -18 -106 -48 -202 -17 -57 -35
-103 -40 -103 -5 0 -7 -4 -3 -9 3 -5 1 -12 -5 -16 -5 -3 -10 -13 -10 -21 0 -8
-5 -20 -10 -27 -6 -7 -32 -46 -59 -87 -59 -92 -164 -201 -237 -247 -194 -124
-348 -168 -574 -166 -89 1 -257 27 -277 43 -2 2 -6 3 -10 4 -5 1 -25 10 -47
19 -21 9 -45 17 -52 17 -8 0 -14 5 -14 10 0 6 -7 10 -15 10 -8 0 -15 5 -15 12
0 6 -3 9 -6 5 -7 -6 -82 42 -114 72 -9 9 -30 28 -46 42 -122 108 -216 273
-272 479 -20 71 -25 101 -39 215 -13 103 -5 373 12 445 4 14 8 39 11 55 2 17
7 37 10 45 3 8 8 26 10 40 15 81 94 245 164 340 138 186 357 319 575 347 22 3
42 7 44 9 5 4 272 -3 291 -9z"/>
<path d="M6200 6980 c-4 -3 -7 -844 -7 -1870 l2 -1865 35 -6 c19 -3 44 -2 55
1 11 4 30 4 43 1 13 -3 57 -4 98 -1 40 3 74 3 74 0 0 -3 19 -4 42 -3 66 4 97
4 171 1 37 -2 67 0 67 3 0 4 18 3 40 -1 22 -4 40 -4 40 -1 0 4 25 4 55 1 30
-3 55 -4 55 -1 0 5 101 5 125 1 6 -2 18 -2 27 -1 15 1 16 132 15 1873 l-2
1873 -463 0 c-255 0 -467 -2 -472 -5z"/>
<path d="M4663 4274 c-197 -65 -328 -199 -379 -389 -15 -58 -21 -198 -9 -235
3 -10 8 -28 10 -39 3 -12 7 -30 10 -42 8 -38 75 -150 116 -193 55 -60 132
-111 211 -140 87 -33 114 -38 223 -40 164 -4 311 51 419 159 34 33 67 69 73
80 16 26 51 98 52 108 0 4 8 24 17 45 23 52 27 210 8 287 -9 33 -18 70 -21 83
-3 12 -9 22 -14 22 -5 0 -9 9 -9 20 0 11 -3 20 -8 20 -4 0 -16 16 -26 35 -41
76 -162 171 -264 207 -79 28 -92 30 -222 33 -97 2 -126 -2 -187 -21z"/>
</g>
</svg>
