<?xml version="1.0" encoding="UTF-8"?>
<svg width="344px" height="49px" viewBox="0 0 344 49" version="1.1" xmlns="http://www.w3.org/2000/svg" xmlns:xlink="http://www.w3.org/1999/xlink">
    <title>ecoseller.io</title>
    <g id="Page-1" stroke="none" stroke-width="1" fill="none" fill-rule="evenodd">
        <g id="square-long" transform="translate(-96.000000, -241.000000)" fill-rule="nonzero">
            <g id="ecoseller.io" transform="translate(96.980000, 241.960000)">
                <path d="M16.44,20.16 C20.76,20.16 24.24,22.92 24.36,27.3 L8.58,27.3 C9.24,22.74 12.42,20.16 16.44,20.16 Z M32.22,36.6 L23.16,36.6 C22.08,38.82 20.1,40.62 16.5,40.62 C12.3,40.62 8.94,37.86 8.52,32.94 L32.82,32.94 C33,31.86 33.06,30.78 33.06,29.7 C33.06,19.8 26.28,13.26 16.68,13.26 C6.84,13.26 2.84217094e-14,19.92 2.84217094e-14,30.42 C2.84217094e-14,40.86 7.02,47.58 16.68,47.58 C24.9,47.58 30.42,42.72 32.22,36.6 Z" id="Shape" fill="#000000"></path>
                <path d="M37.008,30.42 C37.008,40.86 43.848,47.58 53.448,47.58 C61.728,47.58 67.308,42.9 69.108,35.82 L60.048,35.82 C59.028,38.82 56.868,40.38 53.388,40.38 C48.708,40.38 45.588,36.9 45.588,30.42 C45.588,23.94 48.708,20.4 53.388,20.4 C56.868,20.4 59.088,22.2 60.048,25.02 L69.108,25.02 C67.308,17.58 61.728,13.26 53.448,13.26 C43.848,13.26 37.008,19.98 37.008,30.42 Z" id="Path" fill="#000000"></path>
                <path d="M107.376,30.42 C107.376,19.92 99.876,13.26 90.276,13.26 C80.676,13.26 73.176,19.92 73.176,30.42 C73.176,40.86 80.436,47.58 90.036,47.58 C99.696,47.58 107.376,40.86 107.376,30.42 Z M81.696,30.42 C81.696,23.76 85.716,20.58 90.156,20.58 C94.596,20.58 98.736,23.76 98.736,30.42 C98.736,37.02 94.476,40.26 90.036,40.26 C85.536,40.26 81.696,37.02 81.696,30.42 Z" id="Shape" fill="#000000"></path>
                <path d="M139.344,37.56 C139.104,25.38 120.684,29.16 120.684,23.1 C120.684,21.18 122.304,19.92 125.424,19.92 C128.724,19.92 130.764,21.66 131.004,24.24 L139.044,24.24 C138.564,17.64 133.704,13.26 125.664,13.26 C117.444,13.26 112.524,17.7 112.524,23.22 C112.524,35.4 131.304,31.62 131.304,37.56 C131.304,39.48 129.504,40.98 126.204,40.98 C122.844,40.98 120.504,39.06 120.204,36.54 L111.744,36.54 C112.104,42.72 117.924,47.58 126.264,47.58 C134.364,47.58 139.344,43.26 139.344,37.56 Z" id="Path" fill="#000000"></path>
                <path d="M160.512,20.16 C164.832,20.16 168.312,22.92 168.432,27.3 L152.652,27.3 C153.312,22.74 156.492,20.16 160.512,20.16 Z M176.292,36.6 L167.232,36.6 C166.152,38.82 164.172,40.62 160.572,40.62 C156.372,40.62 153.012,37.86 152.592,32.94 L176.892,32.94 C177.072,31.86 177.132,30.78 177.132,29.7 C177.132,19.8 170.352,13.26 160.752,13.26 C150.912,13.26 144.072,19.92 144.072,30.42 C144.072,40.86 151.092,47.58 160.752,47.58 C168.972,47.58 174.492,42.72 176.292,36.6 Z" id="Shape" fill="#000000"></path>
                <polygon id="Path" fill="#000000" points="183.24 47.04 191.64 47.04 191.64 2.64 183.24 2.64"></polygon>
                <polygon id="Path" fill="#000000" points="199.908 47.04 208.308 47.04 208.308 2.64 199.908 2.64"></polygon>
                <path d="M230.856,20.16 C235.176,20.16 238.656,22.92 238.776,27.3 L222.996,27.3 C223.656,22.74 226.836,20.16 230.856,20.16 Z M246.636,36.6 L237.576,36.6 C236.496,38.82 234.516,40.62 230.916,40.62 C226.716,40.62 223.356,37.86 222.936,32.94 L247.236,32.94 C247.416,31.86 247.476,30.78 247.476,29.7 C247.476,19.8 240.696,13.26 231.096,13.26 C221.256,13.26 214.416,19.92 214.416,30.42 C214.416,40.86 221.436,47.58 231.096,47.58 C239.316,47.58 244.836,42.72 246.636,36.6 Z" id="Shape" fill="#000000"></path>
                <path d="M261.984,30.48 C261.984,24.06 264.984,22.14 269.964,22.14 L272.184,22.14 L272.184,13.32 C267.564,13.32 264.084,15.54 261.984,18.96 L261.984,13.8 L253.584,13.8 L253.584,47.04 L261.984,47.04 L261.984,30.48 Z" id="Path" fill="#000000"></path>
                <path d="M286.632,42.54 C286.632,39.78 284.472,37.62 281.532,37.62 C278.472,37.62 276.312,39.78 276.312,42.54 C276.312,45.3 278.472,47.46 281.532,47.46 C284.472,47.46 286.632,45.3 286.632,42.54 Z" id="Path" fill="#8E44AD"></path>
                <path d="M293.4,47.04 L301.8,47.04 L301.8,13.8 L293.4,13.8 L293.4,47.04 Z M297.66,9.84 C300.6,9.84 302.82,7.68 302.82,4.92 C302.82,2.16 300.6,0 297.66,0 C294.66,0 292.5,2.16 292.5,4.92 C292.5,7.68 294.66,9.84 297.66,9.84 Z" id="Shape" fill="#000000"></path>
                <path d="M342.168,30.42 C342.168,19.92 334.668,13.26 325.068,13.26 C315.468,13.26 307.968,19.92 307.968,30.42 C307.968,40.86 315.228,47.58 324.828,47.58 C334.488,47.58 342.168,40.86 342.168,30.42 Z M316.488,30.42 C316.488,23.76 320.508,20.58 324.948,20.58 C329.388,20.58 333.528,23.76 333.528,30.42 C333.528,37.02 329.268,40.26 324.828,40.26 C320.328,40.26 316.488,37.02 316.488,30.42 Z" id="Shape" fill="#000000"></path>
            </g>
        </g>
    </g>
</svg>